<svg xmlns:xlink="http://www.w3.org/1999/xlink" xmlns="http://www.w3.org/2000/svg" width="15" height="15" viewBox="0 0 16 16" fill="currentColor" class="text-yellow-100"><path d="M5.919 7.0585c1.9705 0 3.5683 1.5979 3.5683 3.5684v3.3164c0 .5922-.48 1.0723-1.0723 1.0723H1.6123c-.5922 0-1.0723-.4801-1.0723-1.0723v-3.3164c0-1.9705 1.5979-3.5684 3.5684-3.5684zm-2.6641 4.5938a.441.441 0 0 0-.4072.2715.44.44 0 0 0 .0957.4795l.8789.8779a.4413.4413 0 0 0 .623 0 .44.44 0 0 0 0-.6221l-.127-.1269h2.4512a.4407.4407 0 0 0 .4405-.4405.44.44 0 0 0-.4405-.4394zM6.205 9.0068a.441.441 0 0 0-.623 0 .44.44 0 0 0 0 .622l.1269.127H3.2578a.44.44 0 0 0-.4404.4394c0 .243.1972.4405.4404.4405h3.5147a.441.441 0 0 0 .4072-.2715.44.44 0 0 0-.0957-.4795z" fill="#F2C366"></path><path d="M11.8915 7.28c1.9704 0 3.5682 1.597 3.5683 3.5675v3.0878c-.0002.5919-.4804 1.0721-1.0722 1.0723h-3.5733v-4.1064c0-1.3267-.4501-2.548-1.204-3.5215a3.58 3.58 0 0 1 .8388-.0996z" fill="#F2C366"></path><path d="M7.5336 3.505c0 1.392-1.1284 2.5204-2.5204 2.5204S2.4927 4.897 2.4927 3.505 3.6212.9846 5.0132.9846 7.5336 2.1129 7.5336 3.505" fill="#F2C366"></path><path d="M13.6916 3.505c0 1.392-1.1285 2.5204-2.5205 2.5204S8.6507 4.897 8.6507 3.505 9.7791.9846 11.1711.9846s2.5205 1.1284 2.5205 2.5205" fill="#F2C366"></path></svg>