<svg xmlns:xlink="http://www.w3.org/1999/xlink" xmlns="http://www.w3.org/2000/svg" width="12" height="12" fill="" viewBox="0 0 16 16"><path fill="#FFD039" d="M12 4.8c0 2.2091-1.7908 4-4 4-2.209 0-4-1.7909-4-4s1.791-4 4-4c2.2092 0 4 1.7909 4 4"></path><path fill="#FFD039" d="M8 6.8c0 1.9882-1.6117 3.6-3.6 3.6C2.4119 10.4.8 8.7882.8 6.8s1.6118-3.6 3.6-3.6S8 4.8118 8 6.8"></path><path fill="#FFD039" d="M15.2 6.8c0 1.9882-1.6117 3.6-3.6 3.6C9.6118 10.4 8 8.7882 8 6.8s1.6118-3.6 3.6-3.6 3.6 1.6118 3.6 3.6"></path><path fill="#FFD039" d="M4 6.4a.8.8 0 0 0-.8.8v7.2a.8.8 0 0 0 .8.8h8a.8.8 0 0 0 .8-.8V7.2a.8.8 0 0 0-.8-.8zm1.36 6.4h5.28a.56.56 0 1 1 0 1.12H5.36a.56.56 0 1 1 0-1.12"></path></svg>