<svg xmlns:xlink="http://www.w3.org/1999/xlink" xmlns="http://www.w3.org/2000/svg"   class="h-3.5 w-3.5" width="15"  height="14" ><defs><symbol id="icon-group-2" viewBox="0 0 15 14" fill="none" xmlns="http://www.w3.org/2000/svg"><path d="M6.93754 4.08333C6.93754 5.13038 6.08875 5.97917 5.04171 5.97917C3.99466 5.97917 3.14587 5.13038 3.14587 4.08333C3.14587 3.03629 3.99466 2.1875 5.04171 2.1875C6.08875 2.1875 6.93754 3.03629 6.93754 4.08333Z" stroke="#F7F8F9" stroke-width="1.25px" fill="none"></path><path d="M12.1875 4.08333C12.1875 5.13038 11.3387 5.97917 10.2917 5.97917C9.24468 5.97917 8.39587 5.13038 8.39587 4.08333C8.39587 3.03629 9.24468 2.1875 10.2917 2.1875C11.3387 2.1875 12.1875 3.03629 12.1875 4.08333Z" stroke="#F7F8F9" stroke-width="1.25px" stroke-linejoin="round" fill="none"></path><path d="M1.25 11.8125H8.74997C8.33878 5.97917 1.6612 5.97917 1.25 11.8125Z" stroke="#F7F8F9" stroke-width="1.25px" fill="none"></path><path d="M8.67157 7.89279C10.7998 6.64837 13.8122 7.95492 14.0841 11.8125H10.0007" stroke="#F7F8F9" stroke-width="1.25px" fill="none"></path></symbol></defs><use href="#icon-group-2"></use></svg>