<svg xmlns:xlink="http://www.w3.org/1999/xlink" xmlns="http://www.w3.org/2000/svg" width="15" height="15" viewBox="0 0 16 16" fill="currentColor" class="text-blue-100"><path d="M13.4633 1.7601H2.5365c-.7512 0-1.3659.6147-1.3659 1.3659v8.1951c0 .758.6147 1.3658 1.366 1.3658h2.7316L8 15.4186l2.7317-2.7317h2.7317a1.361 1.361 0 0 0 1.3659-1.3658V3.126c0-.7512-.6078-1.3659-1.3659-1.3659m-7.4575 8.8781H4.5853V9.2109L8.6894 5.093l1.4137 1.4205zm5.2995-5.3269-.6898.6898L9.202 4.6148l.6897-.6966c.1366-.1434.3688-.1503.5327 0l.881.8536c.1434.1435.1502.3756 0 .5395" fill="#4EA7FA"></path></svg>